HIERARCHY
ROOT Hips
{
	OFFSET 0.000000 0.000000 0.000000
	CHANNELS 6 Xposition Yposition Zposition Xrotation Yrotation Zrotation
	JOINT LeftUpLeg_virtual
	{
		OFFSET 0.000000 0.000000 0.000000
		CHANNELS 3 Xrotation Yrotation Zrotation
		JOINT LeftUpLeg
		{
			OFFSET 11.394100 -6.187798 -0.413800
			CHANNELS 3 Xrotation Yrotation Zrotation
			JOINT LeftLeg
			{
				OFFSET 0.430247 -32.302673 3.732800
				CHANNELS 3 Xrotation Yrotation Zrotation
				JOINT LeftFoot
				{
					OFFSET -0.430247 -48.264931 -6.423300
					CHANNELS 3 Xrotation Yrotation Zrotation
					JOINT LeftToeBase
					{
						OFFSET 4.230900 -16.068199 23.438400
						CHANNELS 3 Xrotation Yrotation Zrotation
						JOINT LeftToe_End
						{
							OFFSET 4.510700 0.695400 19.974600
							CHANNELS 3 Xrotation Yrotation Zrotation
							End Site
							{
								OFFSET 0 0 0
							}
						}
					}
				}
			}
		}
	}
	JOINT RightUpLeg_virtual
	{
		OFFSET 0.000000 0.000000 0.000000
		CHANNELS 3 Xrotation Yrotation Zrotation
		JOINT RightUpLeg
		{
			OFFSET -11.333700 -6.187798 -0.413800
			CHANNELS 3 Xrotation Yrotation Zrotation
			JOINT RightLeg
			{
				OFFSET -0.430392 -32.302628 3.733000
				CHANNELS 3 Xrotation Yrotation Zrotation
				JOINT RightFoot
				{
					OFFSET 0.430392 -48.264973 -6.423500
					CHANNELS 3 Xrotation Yrotation Zrotation
					JOINT RightToeBase
					{
						OFFSET -4.230900 -16.068199 23.438400
						CHANNELS 3 Xrotation Yrotation Zrotation
						JOINT RightToe_End
						{
							OFFSET -4.510700 0.695400 19.974600
							CHANNELS 3 Xrotation Yrotation Zrotation
							End Site
							{
								OFFSET 0 0 0
							}
						}
					}
				}
			}
		}
	}
	JOINT Spine_virtual
	{
		OFFSET 0.000000 0.000000 0.000000
		CHANNELS 3 Xrotation Yrotation Zrotation
		JOINT Spine
		{
			OFFSET -0.002400 12.777504 0.315300
			CHANNELS 3 Xrotation Yrotation Zrotation
			JOINT Spine1
			{
				OFFSET -0.002067 5.816869 0.032633
				CHANNELS 3 Xrotation Yrotation Zrotation
				JOINT Spine1_split
				{
					OFFSET -0.002067 5.816869 0.032633
					CHANNELS 3 Xrotation Yrotation Zrotation
					JOINT Spine2
					{
						OFFSET -0.002067 5.816869 0.032633
						CHANNELS 3 Xrotation Yrotation Zrotation
						JOINT Neck_virtual
						{
							OFFSET 0.000000 0.000000 0.000000
							CHANNELS 3 Xrotation Yrotation Zrotation
							JOINT Neck
							{
								OFFSET -0.003700 21.199493 -0.826900
								CHANNELS 3 Xrotation Yrotation Zrotation
								JOINT Head
								{
									OFFSET 0.000000 20.442200 4.834800
									CHANNELS 3 Xrotation Yrotation Zrotation
									JOINT HeadTop_End
									{
										OFFSET 0.000000 34.668396 4.968400
										CHANNELS 3 Xrotation Yrotation Zrotation
										End Site
										{
											OFFSET 0 0 0
										}
									}
								}
							}
						}
						JOINT LeftShoulder_virtual
						{
							OFFSET 0.000000 0.000000 0.000000
							CHANNELS 3 Xrotation Yrotation Zrotation
							JOINT LeftShoulder
							{
								OFFSET 3.288150 8.794197 -1.372250
								CHANNELS 3 Xrotation Yrotation Zrotation
								JOINT LeftShoulder_split
								{
									OFFSET 3.288150 8.794197 -1.372250
									CHANNELS 3 Xrotation Yrotation Zrotation
									JOINT LeftArm
									{
										OFFSET 11.953299 -2.279007 -0.146200
										CHANNELS 3 Xrotation Yrotation Zrotation
										JOINT LeftForeArm
										{
											OFFSET 18.448900 0.000000 0.000000
											CHANNELS 3 Xrotation Yrotation Zrotation
											JOINT LeftHand
											{
												OFFSET 29.527798 0.000000 0.000000
												CHANNELS 3 Xrotation Yrotation Zrotation
												End Site
												{
													OFFSET 0 0 0
												}
											}
										}
									}
								}
							}
						}
						JOINT RightShoulder_virtual
						{
							OFFSET 0.000000 0.000000 0.000000
							CHANNELS 3 Xrotation Yrotation Zrotation
							JOINT RightShoulder
							{
								OFFSET -3.249400 8.794197 -1.372250
								CHANNELS 3 Xrotation Yrotation Zrotation
								JOINT RightShoulder_split
								{
									OFFSET -3.249400 8.794197 -1.372250
									CHANNELS 3 Xrotation Yrotation Zrotation
									JOINT RightArm
									{
										OFFSET -11.953299 -2.279007 -0.146200
										CHANNELS 3 Xrotation Yrotation Zrotation
										JOINT RightForeArm
										{
											OFFSET -18.448900 0.000000 0.000000
											CHANNELS 3 Xrotation Yrotation Zrotation
											JOINT RightHand
											{
												OFFSET -29.527802 0.000000 0.000000
												CHANNELS 3 Xrotation Yrotation Zrotation
												End Site
												{
													OFFSET 0 0 0
												}
											}
										}
									}
								}
							}
						}
					}
				}
			}
		}
	}
}
MOTION
Frames: 8
Frame Time: 0.03333333
2.752892 103.509911 -7.642227 0.000000 0.000000 0.000000 -1.417820 26.233189 -1.031666 -41.084257 -13.149125 1.746273 43.823033 9.517257 -4.433488 37.937886 -5.229440 4.538195 -21.878006 2.893407 -4.505346 0.000000 0.000000 0.000000 -3.165784 25.526729 -0.470617 -19.137608 -8.078642 4.806591 27.855873 -1.904874 -1.596455 6.578360 -13.662542 -1.819040 -15.137250 4.894289 -15.283074 0.000000 0.000000 0.000000 -3.975132 29.494649 0.014796 9.647910 -2.412051 -0.828781 1.594383 0.531422 1.366568 -0.005194 0.151185 0.040006 0.000000 0.000000 0.000000 0.603848 3.906570 2.035103 -16.775590 10.394237 18.935644 -4.847112 -30.044964 -36.686295 0.000000 0.000000 0.000000 1.265905 1.719000 1.740280 -0.146335 -0.536358 -10.988070 0.212301 -3.076063 -1.316570 4.289282 -7.865321 -60.624691 30.330319 -24.079550 0.473145 0.000000 0.000000 0.000000 1.826091 1.690100 1.425723 -3.777832 0.901719 16.473872 -22.675291 -6.272927 2.572974 20.439707 10.228387 46.131904 -1.832689 36.537004 26.678251 0.000000 0.000000 0.000000 
2.708276 104.206711 -4.902039 0.000000 0.000000 0.000000 -1.400323 25.010874 -1.033246 -41.097638 -11.305013 0.538622 36.453707 12.507103 -3.695972 32.414954 -4.037821 7.342622 -18.209819 3.274179 -5.796773 0.000000 0.000000 0.000000 -2.360165 23.189805 -0.541261 -18.072180 -7.982346 4.692623 27.464653 -1.870534 -1.427928 7.826178 -13.342550 -3.025229 -16.444713 4.800161 -14.289592 0.000000 0.000000 0.000000 -2.414017 28.112871 -0.758409 9.159912 -2.024852 -0.681372 1.606938 0.502858 1.320474 -0.070243 0.158184 0.057547 0.000000 0.000000 0.000000 0.606903 3.931325 1.902765 -16.688966 9.997233 18.774286 -5.175457 -31.077815 -36.788150 0.000000 0.000000 0.000000 1.312432 1.712892 1.843547 -0.141912 -0.334545 -10.981175 -0.668663 -3.473039 -1.772854 5.014210 -7.197694 -60.338963 30.395144 -24.193715 0.701023 0.000000 0.000000 0.000000 1.682611 1.713622 1.370772 -3.783464 1.078762 15.778775 -22.571960 -6.034917 1.819149 19.680772 10.577750 46.556752 -3.220501 39.201297 27.345887 0.000000 0.000000 0.000000 
2.702154 105.356094 -1.524094 0.000000 0.000000 0.000000 -1.480620 22.782864 -0.769325 -41.908466 -7.118989 -0.172425 27.442824 14.555709 -1.516259 29.526723 -3.767161 6.582533 -9.676104 2.836748 -5.397526 0.000000 0.000000 0.000000 -1.866759 20.047968 -0.377218 -15.983003 -8.342181 4.112363 26.226181 -0.835189 -1.161669 9.155423 -11.348940 -3.816915 -19.570789 5.462016 -13.270669 0.000000 0.000000 0.000000 -1.119334 25.920918 -1.348046 8.855997 -1.369281 -0.433751 1.674787 0.512021 1.272457 -0.061692 -0.017173 0.080893 0.000000 0.000000 0.000000 0.651844 3.978231 1.913291 -16.636835 9.686023 18.425699 -6.700533 -32.591805 -37.361446 0.000000 0.000000 0.000000 1.281376 1.702002 1.817444 -0.090073 0.069638 -11.299652 -1.484945 -4.293810 -2.443276 5.744115 -5.553564 -60.172696 31.244748 -24.362426 1.413248 0.000000 0.000000 0.000000 1.469126 1.714159 1.193035 -3.765084 1.793025 14.579264 -22.193481 -6.296591 1.709860 19.591662 11.690045 46.548514 -5.666260 41.510540 28.600075 0.000000 0.000000 0.000000 
2.762709 106.432053 1.886097 0.000000 0.000000 0.000000 -1.559679 19.902608 -0.292006 -43.746846 -1.762172 -0.450292 19.222673 14.682059 1.458044 31.178195 -5.057582 2.777739 -3.852926 1.965772 -1.291859 0.000000 0.000000 0.000000 -1.382566 16.767399 -0.109756 -13.183137 -9.171851 3.272190 24.058378 1.013475 -0.789028 9.090678 -8.185741 -4.708733 -22.358814 6.662453 -12.526356 0.000000 0.000000 0.000000 -0.368160 23.259847 -1.659503 8.753503 -0.636770 -0.236201 1.854184 0.516453 1.284819 0.005089 -0.413617 0.116924 0.000000 0.000000 0.000000 0.695383 3.984932 2.119152 -16.551591 9.557209 17.910356 -9.298396 -34.564760 -38.318222 0.000000 0.000000 0.000000 1.176998 1.667481 1.729812 0.001835 0.581711 -11.789535 -1.937235 -5.183043 -3.118767 6.317976 -3.003190 -60.251223 32.698223 -24.506418 2.460220 0.000000 0.000000 0.000000 1.266372 1.674000 0.997151 -3.729807 2.966488 13.135425 -21.858140 -6.936092 2.164568 19.901607 13.074499 46.143949 -8.479808 42.336675 29.913633 0.000000 0.000000 0.000000 
2.929113 106.925621 5.360203 0.000000 0.000000 0.000000 -1.600741 16.670624 0.228907 -46.270065 4.897258 -0.122031 12.862692 13.837044 4.428944 34.586452 -7.551297 -0.703717 -4.540079 0.886621 5.792300 0.000000 0.000000 0.000000 -0.714397 13.673579 0.108263 -9.944466 -10.770658 2.453194 21.627304 3.136618 -0.378363 6.692555 -4.893072 -6.126210 -22.531787 8.073268 -12.386377 0.000000 0.000000 0.000000 0.278448 20.525857 -1.860504 8.713797 0.060529 -0.187058 2.180752 0.549372 1.411979 0.072985 -0.820511 0.140038 0.000000 0.000000 0.000000 0.718079 3.935783 2.498970 -16.347557 9.604706 17.199087 -12.271802 -36.762633 -39.472981 0.000000 0.000000 0.000000 1.014608 1.667328 1.668662 0.128783 1.039813 -12.322134 -1.880596 -5.982895 -3.298401 6.698049 0.220786 -60.591107 34.490376 -24.491291 3.637724 0.000000 0.000000 0.000000 1.134716 1.625738 0.876517 -3.646690 4.418845 11.768769 -21.644799 -7.744282 2.778089 20.106786 14.226234 45.420208 -10.973215 41.326961 30.830350 0.000000 0.000000 0.000000 
3.331295 106.456566 8.894024 0.000000 0.000000 0.000000 -1.563687 13.422875 0.611942 -48.627822 12.561175 0.803508 9.068664 13.282970 6.974628 36.918743 -9.989947 -1.649699 -8.314486 -0.556749 12.088698 0.000000 0.000000 0.000000 -0.089989 11.259185 0.164747 -6.706858 -13.180419 1.785324 19.903945 5.047655 0.050307 2.279531 -2.488739 -7.608669 -19.712378 9.423420 -13.103737 0.000000 0.000000 0.000000 0.770861 18.058515 -2.048046 8.550903 0.657466 -0.338338 2.622023 0.662216 1.622307 0.197640 -1.070285 0.123564 0.000000 0.000000 0.000000 0.713311 3.860495 2.931727 -16.044994 9.715225 16.286941 -14.766422 -39.086724 -40.392824 0.000000 0.000000 0.000000 0.810822 1.769929 1.670443 0.274228 1.236957 -12.737702 -1.466858 -6.259189 -3.148532 6.902639 3.673154 -61.141989 36.220842 -24.052605 4.657926 0.000000 0.000000 0.000000 1.141528 1.639069 0.876430 -3.538710 5.990880 10.769547 -21.534287 -8.759751 3.318291 19.739493 14.813731 44.764367 -12.763768 38.995100 31.188894 0.000000 0.000000 0.000000 
3.827855 105.131607 12.622528 0.000000 0.000000 0.000000 -1.446566 10.270964 0.738969 -50.941976 19.619599 1.891246 9.017518 13.091125 8.906231 37.905388 -11.909935 -1.009012 -9.499354 -1.153180 14.476591 0.000000 0.000000 0.000000 0.397415 9.628863 0.095141 -3.713176 -15.967246 1.406826 19.544494 6.457328 0.434199 -3.171007 -1.548223 -8.243859 -16.772527 10.632363 -14.574370 0.000000 0.000000 0.000000 0.957344 16.141356 -2.232774 8.038841 1.137598 -0.621892 3.081277 0.864026 1.834759 0.328061 -0.974002 0.083600 0.000000 0.000000 0.000000 0.704336 3.814326 3.262305 -15.524525 9.799487 15.296798 -15.619806 -41.359005 -40.598761 0.000000 0.000000 0.000000 0.616557 1.988362 1.714988 0.397656 1.059315 -12.962759 -1.048835 -5.848204 -2.839902 7.177107 6.916889 -61.845328 37.658036 -23.221914 5.371749 0.000000 0.000000 0.000000 1.301562 1.755455 0.930376 -3.461942 7.371607 10.247568 -21.430209 -9.487062 3.657847 18.825238 14.827419 44.417594 -13.751489 36.262639 31.067679 0.000000 0.000000 0.000000 
4.381751 103.245941 16.278032 0.000000 0.000000 0.000000 -1.226162 7.872865 0.598301 -53.226237 25.128286 3.025226 12.613515 12.714153 9.919876 37.646486 -13.453452 0.854341 -8.231658 -0.715538 14.110730 0.000000 0.000000 0.000000 0.509040 8.810170 -0.068710 -1.030837 -18.189325 1.493144 20.565355 7.300509 0.516680 -8.727199 -2.284652 -8.041093 -15.452210 11.659531 -16.477203 0.000000 0.000000 0.000000 0.839756 15.087504 -2.314227 7.076809 1.470404 -0.933392 3.505710 1.147050 1.925058 0.320803 -0.710143 0.047197 0.000000 0.000000 0.000000 0.734280 3.883950 3.340650 -14.756221 9.720712 14.391111 -13.705512 -43.305807 -39.445538 0.000000 0.000000 0.000000 0.478307 2.303124 1.732151 0.453679 0.385330 -12.988126 -0.608792 -5.367990 -2.441610 7.660054 9.562337 -62.579846 38.644852 -22.241654 5.743221 0.000000 0.000000 0.000000 1.536398 1.983842 0.948762 -3.366693 8.259227 10.168469 -21.316522 -9.591343 3.568014 17.726002 14.385304 44.603126 -13.938744 33.769528 30.615637 0.000000 0.000000 0.000000 
